<?xml version="1.0" standalone="no"?>
<!DOCTYPE svg PUBLIC "-//W3C//DTD SVG 20010904//EN"
 "http://www.w3.org/TR/2001/REC-SVG-20010904/DTD/svg10.dtd">
<svg version="1.0" xmlns="http://www.w3.org/2000/svg"
 width="378.000000pt" height="482.000000pt" viewBox="0 0 378.000000 482.000000"
 preserveAspectRatio="xMidYMid meet">

<g transform="translate(0.000000,482.000000) scale(0.100000,-0.100000)"
fill="#ffffff" stroke="none">
<path d="M926 4801 c-4 -6 2 -23 13 -37 12 -15 21 -31 21 -35 0 -5 -67 -9
-150 -9 -137 0 -150 -2 -160 -19 -5 -11 -10 -32 -10 -47 0 -27 0 -27 -54 -20
-58 6 -116 -8 -116 -29 0 -30 31 -70 57 -75 26 -5 28 -9 25 -46 -3 -35 2 -45
38 -82 44 -47 75 -90 69 -97 -2 -2 -73 1 -158 7 -145 9 -159 8 -252 -14 -76
-18 -99 -27 -99 -40 0 -26 11 -48 24 -48 11 0 102 -55 116 -70 3 -3 22 -20 43
-38 43 -36 46 -34 -73 -57 -170 -32 -250 -78 -250 -142 0 -37 14 -47 120 -82
100 -33 99 -31 58 -93 -20 -29 -68 -88 -107 -132 -39 -43 -71 -84 -71 -91 0
-26 50 -48 173 -75 l57 -13 0 -148 c0 -218 16 -323 95 -619 61 -226 61 -216 0
-249 -34 -18 -62 -44 -91 -85 -88 -126 -104 -243 -69 -494 4 -33 13 -63 43
-152 25 -75 91 -179 162 -256 66 -71 103 -134 155 -264 38 -93 163 -346 201
-405 114 -179 153 -236 196 -290 27 -33 56 -74 64 -91 15 -32 111 -134 126
-134 4 0 16 -8 26 -18 19 -19 225 -122 245 -122 7 0 39 -9 71 -20 31 -12 92
-25 134 -31 42 -5 97 -12 122 -16 81 -12 303 -6 415 11 144 22 308 70 427 126
37 16 70 30 76 30 5 0 28 13 50 30 23 16 45 30 49 30 5 0 28 18 53 40 25 22
50 40 56 40 20 0 173 161 193 203 12 23 40 67 63 97 50 65 151 261 197 380 30
78 121 332 121 338 0 1 6 2 13 2 6 0 27 22 45 48 17 26 58 84 90 130 71 100
89 139 141 307 61 198 75 391 36 480 -33 73 -44 80 -157 85 l-103 5 1 45 c1
25 16 87 33 138 79 236 117 472 108 662 -9 169 -37 300 -109 500 -17 47 -35
111 -41 143 l-10 59 54 51 c52 49 111 149 96 163 -11 12 -172 15 -280 7 -59
-5 -113 -6 -119 -2 -7 5 -1 17 17 35 15 15 40 47 54 70 15 23 42 57 61 76 51
49 107 132 115 167 6 27 3 31 -20 37 -49 12 -123 -6 -244 -61 -66 -30 -123
-55 -126 -55 -12 0 -75 -46 -75 -55 0 -5 -9 -21 -19 -34 -10 -14 -16 -31 -13
-39 4 -11 -1 -14 -19 -10 -110 24 -274 61 -319 73 -57 15 -161 37 -287 60 -93
18 -198 45 -398 105 -55 16 -134 38 -177 49 -42 11 -90 27 -107 35 -16 9 -36
16 -43 16 -7 0 -24 6 -38 13 -14 7 -61 23 -105 36 -44 12 -102 31 -130 41
-160 59 -401 100 -419 71z m584 -271 c58 -18 123 -40 145 -50 59 -26 296 -97
405 -120 52 -11 154 -34 225 -50 155 -34 265 -57 320 -66 33 -5 113 -27 375
-103 31 -9 50 -44 50 -94 l0 -38 154 7 c102 4 155 3 159 -4 4 -5 0 -28 -7 -51
-14 -37 -13 -47 10 -130 13 -49 31 -105 39 -124 8 -19 33 -106 55 -193 36
-143 40 -171 40 -284 1 -186 -15 -309 -65 -510 -9 -36 -19 -75 -21 -88 -7 -36
-22 -17 -33 46 -19 96 -87 291 -120 341 -9 14 -50 57 -91 96 -41 38 -86 82
-100 97 -14 14 -43 36 -66 47 -59 31 -118 85 -148 134 -24 43 -66 177 -66 215
0 17 -5 18 -52 11 -74 -12 -177 -35 -218 -49 -72 -25 -97 -33 -155 -50 -33
-10 -98 -38 -145 -64 -153 -83 -337 -164 -423 -187 -18 -4 -63 -17 -102 -29
-93 -27 -278 -37 -371 -20 -123 22 -169 37 -275 88 -153 74 -218 84 -279 41
-16 -10 -55 -77 -102 -171 -92 -182 -102 -208 -134 -318 -14 -47 -33 -98 -43
-113 l-18 -28 -12 58 c-7 32 -18 81 -26 108 -7 28 -19 112 -26 187 -16 170 -1
335 36 410 l23 46 -21 5 c-12 3 -48 9 -80 12 -31 4 -59 11 -62 15 -3 4 9 34
25 66 40 81 59 159 53 221 -4 39 -2 54 8 58 8 2 59 9 115 14 56 6 108 13 117
17 23 8 21 35 -8 129 -14 44 -25 84 -25 89 0 5 68 7 163 3 215 -7 213 -8 220
55 5 39 2 59 -14 90 -11 22 -17 43 -14 46 4 4 25 14 48 23 l41 16 -47 34 c-69
48 -62 65 16 35 120 -47 143 -54 256 -86 62 -17 116 -29 119 -26 6 6 -32 160
-53 216 l-13 36 56 -17 c32 -9 104 -31 162 -49z m1163 -1127 c13 -44 53 -108
101 -163 23 -26 109 -93 184 -145 41 -27 78 -59 84 -70 6 -11 23 -33 38 -50
69 -73 137 -236 161 -385 10 -62 5 -303 -7 -335 -10 -25 -18 -18 -54 52 -19
37 -42 74 -50 83 -8 8 -37 42 -65 74 -39 46 -66 67 -122 93 -86 40 -178 63
-253 63 -77 0 -224 -44 -285 -85 -40 -27 -131 -121 -166 -171 l-28 -41 -48 9
c-106 20 -222 21 -316 3 -198 -37 -175 -38 -196 4 -29 57 -146 177 -206 211
-63 36 -188 70 -258 70 -75 0 -171 -27 -273 -77 -73 -35 -95 -51 -110 -79 -11
-19 -30 -42 -42 -50 -13 -9 -37 -45 -54 -80 -17 -36 -33 -63 -37 -62 -3 2 -28
15 -55 28 l-48 25 7 70 c12 115 19 155 46 275 52 226 79 311 144 438 19 37 35
72 35 78 0 7 11 19 25 28 25 16 29 16 83 -4 31 -12 75 -32 97 -45 60 -35 193
-73 297 -86 122 -15 327 -5 405 20 32 10 73 22 92 26 68 15 275 106 524 231
16 8 34 14 40 14 7 0 28 8 47 19 56 29 231 82 241 72 3 -3 13 -29 22 -58z
m-1316 -974 c84 -41 94 -49 135 -109 59 -87 78 -139 79 -214 2 -99 -16 -164
-61 -224 -22 -29 -40 -56 -40 -60 0 -22 -118 -94 -198 -121 -34 -11 -80 -21
-103 -21 -67 0 -175 52 -252 121 -92 83 -119 138 -125 249 -6 122 9 185 63
256 51 68 84 92 192 140 70 31 86 34 148 31 58 -3 86 -11 162 -48z m1477 16
c41 -19 78 -35 83 -35 15 0 92 -79 108 -110 90 -174 75 -361 -38 -478 -53 -55
-161 -119 -225 -134 -63 -14 -140 0 -227 41 -61 29 -78 43 -141 116 -96 113
-119 270 -56 397 55 112 93 148 202 198 118 53 190 55 294 5z m-2373 -207 c4
-6 9 -65 12 -131 4 -99 13 -152 47 -282 48 -188 56 -206 93 -219 58 -21 59 33
1 198 -48 136 -71 227 -79 312 -7 74 1 96 27 71 7 -7 30 -23 51 -36 36 -22 37
-24 37 -85 0 -129 44 -236 143 -349 109 -123 257 -176 442 -157 157 16 265 70
334 165 18 25 37 50 44 57 52 54 107 210 107 305 0 29 5 55 13 60 6 5 51 20
99 33 72 19 104 22 182 18 136 -7 141 -12 149 -131 8 -117 26 -166 106 -287
50 -77 74 -103 127 -139 86 -58 177 -82 314 -83 91 -1 115 3 179 27 40 15 86
34 101 44 33 20 137 133 168 182 40 66 94 212 97 268 2 29 7 57 12 62 4 4 46
22 92 39 46 17 96 37 110 45 38 21 133 36 149 23 28 -24 4 -225 -46 -374 -11
-34 -39 -101 -62 -150 -24 -49 -47 -98 -52 -109 -5 -12 -44 -60 -88 -107 -51
-56 -80 -98 -85 -120 -14 -64 -87 -271 -119 -337 -18 -36 -60 -120 -92 -186
-58 -117 -135 -235 -154 -235 -5 0 -20 -19 -34 -42 -14 -24 -53 -68 -87 -98
-35 -30 -71 -63 -81 -72 -10 -10 -20 -18 -22 -18 -3 0 -31 -17 -63 -39 -60
-40 -185 -101 -283 -139 -30 -12 -122 -31 -205 -43 -127 -18 -176 -20 -319
-15 -381 13 -538 77 -729 296 -7 8 -34 47 -60 87 -25 39 -51 74 -57 78 -6 4
-24 32 -40 64 -16 32 -40 71 -53 87 -14 16 -44 68 -68 114 -23 47 -59 114 -80
150 -20 36 -58 128 -84 205 -38 111 -54 145 -77 163 -16 13 -37 41 -48 61 -10
21 -35 50 -55 65 -79 61 -99 94 -140 241 -25 86 -29 118 -29 230 0 98 4 139
16 165 17 36 52 73 78 83 18 6 53 -2 61 -15z"/>
<path d="M3445 2048 c-28 -15 -75 -60 -75 -71 0 -14 -50 -136 -85 -209 -18
-36 -36 -80 -40 -97 -7 -33 1 -71 15 -71 5 0 32 46 59 102 28 55 57 108 64
117 8 9 30 57 50 106 56 141 56 148 12 123z"/>
</g>
</svg>
