<?xml version="1.0" standalone="no"?>
<!DOCTYPE svg PUBLIC "-//W3C//DTD SVG 20010904//EN"
 "http://www.w3.org/TR/2001/REC-SVG-20010904/DTD/svg10.dtd">
<svg version="1.0" xmlns="http://www.w3.org/2000/svg"
 width="696.000000pt" height="696.000000pt" viewBox="0 0 696.000000 696.000000"
 preserveAspectRatio="xMidYMid meet">
<metadata>
Created by potrace 1.14, written by Peter Selinger 2001-2017
</metadata>
<g transform="translate(0.000000,696.000000) scale(0.100000,-0.100000)"
fill="#000000" stroke="none">
<path d="M2084 6947 c-3 -10 5 -36 20 -61 l26 -44 -23 -5 c-12 -3 -100 -7
-195 -8 -197 -2 -219 -5 -232 -28 -8 -16 -17 -56 -19 -88 -1 -8 -27 -11 -88
-10 -103 2 -153 -14 -153 -47 0 -35 48 -96 81 -103 16 -3 30 -11 31 -17 2 -13
5 -51 7 -86 1 -14 17 -43 37 -65 66 -74 114 -137 114 -149 0 -8 -12 -12 -34
-11 -50 4 -305 17 -351 19 -50 2 -126 -9 -228 -34 -84 -20 -127 -42 -123 -62
6 -33 18 -58 30 -58 39 0 291 -189 274 -205 -4 -4 -58 -18 -120 -31 -126 -27
-239 -59 -280 -80 -78 -40 -121 -108 -104 -161 8 -26 63 -54 178 -92 110 -36
125 -48 107 -83 -17 -34 -94 -136 -144 -192 -45 -50 -115 -136 -130 -159 -17
-27 -17 -28 4 -51 13 -13 32 -27 44 -30 12 -3 78 -20 146 -38 l125 -33 1 -220
c3 -258 7 -308 50 -540 7 -37 64 -264 110 -440 57 -217 56 -233 -23 -274 -70
-36 -129 -104 -182 -208 -67 -131 -87 -277 -67 -499 13 -139 21 -176 64 -304
52 -158 137 -301 246 -415 71 -75 152 -208 212 -350 77 -181 265 -560 323
-650 137 -212 201 -306 256 -379 34 -45 83 -112 108 -151 47 -71 162 -195 181
-195 6 0 20 -9 31 -19 54 -50 281 -158 411 -197 180 -53 192 -56 395 -81 79
-10 426 -10 530 -1 217 20 516 100 708 189 24 11 67 29 96 40 55 20 222 125
266 167 14 13 42 32 63 43 44 23 201 181 253 254 72 103 193 292 229 360 21
39 41 75 45 80 37 53 154 340 269 665 23 63 49 120 59 127 30 21 53 47 88 98
18 28 60 88 93 135 116 163 170 283 236 520 105 379 88 681 -43 749 -20 11
-78 18 -217 26 -27 2 -57 3 -66 4 -30 2 -14 99 50 311 37 119 84 300 96 365
34 191 47 324 48 475 0 55 -11 220 -18 262 -2 13 -6 39 -9 58 -11 70 -17 97
-46 205 -16 61 -50 170 -75 243 -42 121 -70 223 -82 295 -4 24 5 37 60 92 100
98 174 222 148 248 -11 11 -293 16 -494 8 -38 -2 -73 1 -78 6 -5 5 6 25 27 48
19 22 51 64 70 93 19 29 59 77 87 108 101 109 177 227 177 276 0 16 -7 20 -63
32 -50 12 -189 -30 -357 -107 -30 -14 -84 -37 -119 -52 -36 -15 -79 -38 -97
-52 -36 -27 -82 -97 -88 -135 -4 -27 -29 -28 -131 -4 -33 8 -114 26 -180 41
-66 15 -154 36 -195 47 -41 11 -87 21 -102 23 -15 2 -44 8 -65 14 -21 5 -58
13 -83 16 -24 4 -47 8 -50 10 -3 2 -22 6 -43 9 -92 15 -289 63 -492 121 -121
35 -287 82 -369 104 -82 23 -163 48 -180 56 -45 20 -127 49 -322 110 -94 30
-182 59 -195 64 -87 37 -330 89 -461 98 -75 5 -88 4 -94 -10z m1011 -452 c242
-89 491 -159 832 -234 226 -50 187 -42 453 -96 201 -41 657 -162 702 -186 29
-16 49 -67 51 -129 1 -32 4 -57 7 -55 3 2 103 7 223 11 249 7 238 12 214 -83
-17 -68 -11 -102 54 -308 22 -71 49 -157 59 -190 21 -69 70 -266 77 -310 3
-16 9 -50 13 -75 8 -44 6 -435 -3 -475 -3 -11 -8 -47 -11 -80 -14 -117 -101
-501 -116 -510 -8 -5 -40 83 -40 111 0 25 -72 251 -112 349 -48 120 -56 132
-190 263 -154 151 -185 178 -256 219 -101 59 -184 148 -222 239 -33 80 -70
212 -70 251 0 34 -28 34 -209 -3 -219 -44 -477 -137 -721 -261 -249 -125 -421
-196 -605 -246 -164 -46 -176 -47 -375 -52 -247 -6 -372 21 -622 134 -174 78
-221 93 -296 93 -77 1 -122 -34 -179 -137 -101 -182 -216 -432 -254 -553 -44
-138 -65 -194 -88 -231 -15 -24 -15 -24 -28 25 -7 27 -15 63 -17 79 -3 17 -12
53 -20 80 -8 28 -17 70 -20 95 -4 25 -11 79 -17 120 -6 41 -12 149 -14 240 -4
230 17 366 72 474 16 32 7 45 -32 47 -11 0 -29 2 -40 4 -11 2 -40 7 -65 10
-90 12 -91 12 -59 83 75 163 92 230 91 344 -2 98 -5 94 88 103 30 3 69 8 85
10 17 2 57 7 90 11 80 9 102 18 107 46 2 14 -12 83 -33 154 -20 71 -35 131
-33 133 2 2 84 3 181 1 343 -5 348 -4 364 37 17 45 12 117 -10 168 -12 26 -21
54 -21 62 0 8 27 27 61 42 l61 28 -67 52 c-77 61 -76 81 1 55 27 -9 63 -22 79
-29 81 -36 354 -119 462 -140 31 -6 32 -5 27 22 -13 81 -29 147 -55 228 -16
50 -29 95 -29 101 0 12 307 -79 475 -141z m1510 -1547 c59 -180 180 -315 425
-478 71 -47 97 -73 185 -184 96 -123 172 -294 214 -486 18 -83 20 -121 17
-311 -2 -149 -7 -223 -16 -239 l-13 -24 -19 25 c-11 13 -33 49 -48 79 -70 139
-224 302 -335 355 -172 81 -356 111 -495 79 -95 -22 -187 -53 -251 -85 -64
-32 -208 -170 -279 -267 -40 -56 -47 -61 -75 -57 -168 25 -224 30 -310 29 -55
-2 -113 -5 -130 -8 -16 -4 -46 -9 -65 -12 -19 -3 -66 -11 -105 -19 -127 -25
-147 -23 -166 13 -27 54 -99 140 -184 220 -103 98 -183 140 -336 177 -166 40
-294 26 -479 -53 -155 -66 -199 -95 -252 -167 -21 -27 -48 -60 -62 -72 -13
-13 -42 -59 -65 -103 -23 -44 -46 -80 -52 -80 -5 0 -41 16 -79 35 l-70 36 4
42 c3 23 8 67 11 97 5 54 9 79 21 150 3 19 8 47 9 62 6 46 76 338 105 438 33
115 88 255 146 372 24 48 44 91 44 95 0 5 14 20 31 32 28 21 35 22 77 11 26
-6 97 -36 159 -65 101 -49 260 -105 338 -119 78 -14 95 -17 160 -23 91 -8 236
-8 354 1 128 10 380 76 513 135 24 10 77 33 118 51 41 18 163 75 269 127 107
51 215 100 240 109 26 8 64 24 87 35 56 28 266 94 308 97 33 2 35 1 51 -50z
m-2094 -1381 c56 -5 216 -65 250 -93 8 -8 20 -14 25 -14 36 0 150 -151 196
-262 48 -114 42 -312 -12 -417 -52 -104 -124 -194 -185 -233 -111 -73 -241
-123 -336 -131 -101 -9 -279 76 -402 192 -113 106 -156 201 -161 356 -7 202
26 293 152 429 73 79 327 193 402 180 8 -2 40 -5 71 -7z m2293 -23 c33 -14 89
-37 124 -52 70 -29 156 -105 197 -176 27 -47 70 -172 79 -230 28 -177 -21
-347 -132 -463 -70 -72 -198 -153 -295 -186 -63 -21 -192 -16 -268 11 -114 40
-172 76 -244 149 -79 81 -125 151 -157 239 -39 108 -31 317 16 373 6 8 9 16 8
18 -7 7 68 128 101 164 68 75 243 164 357 182 58 9 155 -4 214 -29z m-3415
-311 c22 -19 25 -38 36 -233 6 -121 14 -164 66 -373 61 -242 84 -298 129 -317
23 -9 37 -10 49 -3 35 22 25 90 -45 298 -43 126 -78 244 -88 295 -3 14 -8 36
-11 50 -10 46 -17 169 -11 194 l6 25 74 -50 c41 -27 76 -55 79 -62 2 -7 5 -41
6 -77 6 -185 44 -294 153 -443 174 -235 416 -333 728 -293 213 28 357 105 465
251 16 22 43 56 59 74 66 78 143 295 147 413 4 106 7 111 107 141 140 42 170
47 307 43 204 -6 215 -16 230 -182 17 -190 36 -242 155 -423 78 -119 146 -186
239 -235 121 -63 234 -87 421 -88 130 -1 211 18 346 83 63 31 143 106 239 224
81 100 162 297 186 452 14 95 0 84 199 164 162 66 204 79 268 84 51 5 53 4 66
-26 31 -74 -13 -355 -87 -559 -83 -227 -165 -372 -281 -497 -21 -23 -46 -53
-54 -65 -9 -13 -19 -25 -23 -28 -10 -8 -49 -83 -49 -96 0 -13 -94 -295 -109
-329 -5 -11 -15 -36 -22 -55 -20 -55 -210 -438 -256 -515 -57 -96 -103 -159
-136 -185 -15 -12 -43 -45 -62 -75 -20 -29 -73 -87 -117 -127 -45 -40 -90 -82
-101 -93 -52 -51 -274 -178 -447 -254 -131 -57 -193 -73 -410 -106 -134 -20
-185 -22 -375 -20 -121 2 -242 6 -270 9 -183 19 -223 26 -334 57 -165 45 -341
156 -477 301 -32 35 -92 113 -133 173 -41 61 -84 120 -95 132 -12 12 -32 43
-45 70 -14 26 -53 91 -86 143 -109 168 -251 447 -309 605 -88 241 -100 267
-141 313 -23 26 -53 65 -67 87 -14 22 -44 58 -68 80 -95 89 -129 127 -145 161
-19 41 -65 169 -71 198 -2 10 -11 44 -21 75 -14 45 -17 96 -18 261 0 194 1
207 23 252 48 97 130 142 181 101z"/>
<path d="M5740 2950 c-64 -33 -105 -88 -145 -195 -21 -55 -57 -140 -80 -190
-58 -122 -76 -180 -70 -217 13 -70 23 -65 75 35 24 45 53 100 65 122 98 180
128 243 160 329 20 54 35 106 33 116 -3 18 -4 18 -38 0z"/>
</g>
</svg>
